<svg width="512" height="512" viewBox="0 0 512 512" fill="none" xmlns="http://www.w3.org/2000/svg">
<rect width="512" height="512" fill="url(#paint0_linear_57_9)"/>
<path d="M248.5 174.346C254.26 173.418 265.2 174.322 270.899 175.254C297.414 179.396 318.48 193.391 334.079 215.094C382.565 282.556 323.724 362.765 280.942 415.634C277.081 420.404 267.411 431.705 262.855 434.882C257.746 437.224 252.133 437.653 247.5 433.561C242.573 428.963 237.769 423.639 233.458 418.417C188.011 363.365 126.422 277.812 182.098 209.101C198.772 188.524 222.8 176.566 248.5 174.346ZM296.711 267.873C295.252 245.392 276.003 228.263 253.524 229.444C238.732 230.22 225.501 238.9 218.886 252.164C212.272 265.428 213.297 281.227 221.57 293.523C229.842 305.82 244.084 312.713 258.852 311.569C281.295 309.83 298.17 290.354 296.711 267.873Z" fill="white"/>
<path d="M99.2833 446.536C140.612 438.842 182.716 433.196 224.844 432.664C215.216 420.408 202.888 407.197 194.538 394.291C187.097 394.338 177.249 395.276 169.556 396.009L168.727 396.088C141.834 398.649 107.759 402.467 81.735 409.477L81.662 212.67C124.985 185.803 169.45 155.396 212.315 127.48L237.124 111.303C243.081 107.336 250.05 102.378 256.146 98.8081C264.077 103.067 271.513 108.839 279.134 113.672C321.235 140.364 362.469 168.792 404.709 195.243C406.692 197.189 427.847 210.718 431.152 212.87L431.275 409.179C423.314 407.05 410.509 404.909 402.217 403.445C381.944 399.683 361.473 397.077 340.904 395.641C332.862 395.019 325.975 394.281 317.818 394.262L317.214 395.118C313.012 401.072 308.866 406.949 304.417 412.738C299.341 419.344 293.363 425.948 288.594 432.7C299.358 432.793 309.951 433.559 320.677 434.335L321.892 434.423C357.175 436.97 392.405 441.287 426.842 449.555C435.313 451.588 444.582 454.577 453.283 452.716C463.516 450.473 471.114 440.79 471.432 430.451C471.715 421.286 471.567 411.934 471.564 402.766L471.602 250.138C471.546 190.404 479.607 192.994 425.78 161.302C393.328 139.268 358.071 116.916 325.072 95.3569L294.274 75.2633C280.568 66.3354 265.072 54.2918 248.117 58.9701C234.28 62.7891 216.244 76.7666 203.857 84.9183L151.178 119.057L95.2826 155.543C82.4767 163.765 65.1815 174.329 52.9714 183.08C50.0182 185.154 47.4761 187.76 45.4734 190.763C42.9618 194.547 41.2029 200.106 41.0755 204.61C40.6053 221.268 40.7928 238.297 40.8011 254.953L40.7503 403.223C40.7485 418.053 37.5375 440.052 51.8288 449.426C66.5024 459.051 83.8494 448.58 99.2833 446.536Z" fill="white"/>
<defs>
<linearGradient id="paint0_linear_57_9" x1="0" y1="0" x2="512" y2="512" gradientUnits="userSpaceOnUse">
<stop offset="0.00961538" stop-color="#0CD2BE"/>
<stop offset="0.504808" stop-color="#165C87"/>
<stop offset="1" stop-color="#3C4CF9"/>
</linearGradient>
</defs>
</svg>
